<?xml version="1.0" encoding="UTF-8" standalone="no"?>
<svg  data-name="Layer 1" xmlns="http://www.w3.org/2000/svg" viewBox="0 0 512 512"><defs><style>.cls-1{fill:#fff;}.cls-1,.cls-2{stroke:#000;stroke-miterlimit:10;stroke-width:2px;}.cls-2{fill:#f2f2f2;}</style></defs><title>Discord icon</title><g ><path class="cls-1" d="M507,368.93c-59,67.43-148.33,67.79-148.33,67.79L340.22,412c31.42-10.84,67.42-30.22,98.36-65.62-37,27.69-92.58,50.21-182.52,50.21S110.38,374.11,73.54,346.42c30.82,35.4,66.82,54.78,98.24,65.62l-18.42,24.68S64,436.36,5,368.93C15,204.47,73.54,120.31,73.54,120.31s49.12-38.77,114-45L193,86.36c-50.81,11.2-81.39,33-108,56.83,45.88-23.48,91.51-47.8,171.09-47.8s125.09,24.32,171,47.8c-26.61-23.84-52.14-43.35-108-56.83l5.42-11.08c61.88,4.7,114.13,45,114.13,45S497,204.47,507,368.93Z"/><path class="cls-2" d="M438.58,120.31S386.33,80,324.45,75.28L319,86.36c55.86,13.48,81.39,33,108,56.83-45.88-23.48-91.51-47.8-171-47.8S130.85,119.71,85,143.19c26.61-23.84,57.19-45.63,108-56.83l-5.42-11.08c-64.89,6.26-114,45-114,45S15,204.47,5,368.93c59,67.43,148.33,67.79,148.33,67.79L171.78,412c-31.42-10.84-67.42-30.22-98.24-65.62,36.84,27.69,92.46,50.21,182.52,50.21s145.56-22.52,182.52-50.21c-30.94,35.4-66.94,54.78-98.36,65.62l18.42,24.68S448,436.36,507,368.93C497,204.47,438.58,120.31,438.58,120.31ZM185.75,336.43c-22.16,0-40.22-22.52-40.22-50.21S163.59,236,185.75,236s40.09,22.52,40.09,50.21S207.9,336.43,185.75,336.43Zm140.5,0c-22,0-40.09-22.52-40.09-50.21S304.22,236,326.25,236s40.22,22.52,40.22,50.21S348.41,336.43,326.25,336.43Z"/></g></svg>