<?xml version="1.0" encoding="UTF-8" standalone="no"?>
<svg  data-name="Layer 1" xmlns="http://www.w3.org/2000/svg" viewBox="0 0 512 512"><defs><style>.cls-1{fill:#f2f2f2;stroke:#000;stroke-miterlimit:10;stroke-width:2px;}</style></defs><title>social_twitter</title><path class="cls-1" d="M495.19,60.21a208.53,208.53,0,0,1-66,25.22,104,104,0,0,0-177,94.71A294.94,294.94,0,0,1,38.11,71.6,104,104,0,0,0,70.26,210.26a103.85,103.85,0,0,1-47.06-13v1.3a104,104,0,0,0,83.32,101.86,104.1,104.1,0,0,1-46.93,1.77,104,104,0,0,0,97,72.15,208.45,208.45,0,0,1-129,44.46A213.58,213.58,0,0,1,2.82,417.3,294.15,294.15,0,0,0,162.05,464C353.11,464,457.6,305.7,457.6,168.43c0-4.49-.1-9-.32-13.45a209.49,209.49,0,0,0,51.9-53.7,207.44,207.44,0,0,1-59.65,16.36A104.14,104.14,0,0,0,495.19,60.21Z"/></svg>