<?xml version="1.0" encoding="UTF-8" standalone="no"?>
<svg id="Layer_1" data-name="Layer 1" xmlns="http://www.w3.org/2000/svg" viewBox="0 0 60 60"><defs><style>.cls-1{fill:#1a293d;}.cls-2{fill:#2b6cb0;}</style></defs><title>Favicon club</title><path class="cls-1" d="M32,16.43a9.14,9.14,0,0,0-7.78,3.79Q21.39,24,21.39,30.68q0,13.86,11.35,13.86a25,25,0,0,0,6.65-.89q3.21-.88,6.47-2.13v11a38.31,38.31,0,0,1-14.64,2.66q-11.7,0-17.95-6.3T7,30.61a27.26,27.26,0,0,1,3-13.09,20.75,20.75,0,0,1,8.69-8.69,28,28,0,0,1,13.35-3,39,39,0,0,1,16,3.39L43.84,19.39a47.26,47.26,0,0,0-5.73-2.1A21.36,21.36,0,0,0,32,16.43Z"/><rect class="cls-1" x="24.8" y="33.8" width="9.22" height="7.85"/><rect class="cls-1" x="25.62" y="20.02" width="7.85" height="7.85"/><path class="cls-2" d="M16.8,13.87h12q7,0,10.37,2.07a7,7,0,0,1,3.39,6.46A8.2,8.2,0,0,1,41,27.32,6.65,6.65,0,0,1,37.15,30v.23A8,8,0,0,1,41.77,33,8.51,8.51,0,0,1,43.2,38.1a8.75,8.75,0,0,1-3.51,7.35q-3.49,2.69-9.55,2.68H16.8ZM26.06,27h2.79a5.06,5.06,0,0,0,3.08-.82A2.86,2.86,0,0,0,33,23.76q0-2.88-4.36-2.88h-2.6Zm0,6.77V41h3.26c2.89,0,4.34-1.21,4.34-3.65A3.17,3.17,0,0,0,32.5,34.7a5.37,5.37,0,0,0-3.37-.91Z"/></svg>