<?xml version="1.0" encoding="UTF-8" standalone="no"?>
<svg  data-name="Layer 1" xmlns="http://www.w3.org/2000/svg" viewBox="0 0 170.08 170.08"><defs><style>.cls-1,.cls-2{fill:#eaf5ee;}.cls-1,.cls-3{stroke:#eaf5ee;stroke-miterlimit:10;}.cls-1{stroke-width:0.75px;}.cls-3{fill:none;stroke-width:8px;}</style></defs><title>Logo AOR</title><line class="cls-1" x1="41.92" y1="128.65" x2="124.53" y2="33.63"/><path class="cls-2" d="M29.47,79.48a10.49,10.49,0,0,1-3.19-1.35,2,2,0,0,1-.89-1.68,7.82,7.82,0,0,1,.43-2.16A31.87,31.87,0,0,1,27.09,71q.84-1.89,2-4.2t2.66-5H27.93a2.68,2.68,0,0,1,1.63-1.25,18.45,18.45,0,0,1,3.56-.92,66,66,0,0,1,4-6q2.15-2.85,4.3-5.23a44.26,44.26,0,0,1,4.32-4.19,25.56,25.56,0,0,1,4.13-2.86c0-.23.05-.42.07-.58a2.53,2.53,0,0,0,0-.34,6.87,6.87,0,0,1,1.8.34,19.35,19.35,0,0,1,4.13,1.8c.56.34.87.62.94.84a38,38,0,0,0-3.12,8.33,97.84,97.84,0,0,0-2.55,13.27c-.16,1.28-.29,2.74-.4,4.37s-.17,3.45-.17,5.47v2.16c0,.74,0,1.5.09,2.3a.32.32,0,0,1-.19.05h-.38a6.86,6.86,0,0,1-1.56-.21,16.47,16.47,0,0,1-1.73-.52A7.44,7.44,0,0,1,45.38,78a2,2,0,0,1-.74-.66c0-.41,0-.81,0-1.2V74.9c0-2,.07-3.94.21-6s.4-4.09.75-6.24a2.93,2.93,0,0,0-1.78-.5H35.32q-1.14,2.13-2.16,4.24a37.9,37.9,0,0,0-1.72,4.23,35.45,35.45,0,0,0-1.32,4.55A28.14,28.14,0,0,0,29.47,79.48ZM48,50.65c.12-.45.28-1.07.45-1.86s.35-1.61.51-2.48a10,10,0,0,0-2.67,1.59,26.11,26.11,0,0,0-3,2.86q-1.56,1.71-3.17,3.85C39,56,38,57.55,37,59.15q4-.4,9.17-.41.39-2,.84-4C47.32,53.39,47.64,52,48,50.65Z"/><path class="cls-2" d="M86.27,65.18a13.5,13.5,0,0,1,1.87,1c.64.4,1.23.81,1.78,1.23a10.61,10.61,0,0,1,1.37,1.22,2.19,2.19,0,0,1,.6,1,11.68,11.68,0,0,0-1.64-.27c-.54,0-1-.07-1.48-.07a9.54,9.54,0,0,0-4.3,1.06,16.43,16.43,0,0,0-4.06,2.88,24.85,24.85,0,0,0-3.55,4.27,31.56,31.56,0,0,0-2.81,5.23,33.89,33.89,0,0,0-1.84,5.76,26.44,26.44,0,0,0-.68,5.86,9.94,9.94,0,0,0,1.25,5.56,4.14,4.14,0,0,0,3.65,1.83,7.69,7.69,0,0,0,2.5-.46A15.07,15.07,0,0,0,81.66,100a18.61,18.61,0,0,0,2.74-2,20.63,20.63,0,0,0,2.49-2.54,26.08,26.08,0,0,0,3-4.59,35.88,35.88,0,0,0,2.28-5.45,41.24,41.24,0,0,0,1.44-5.92,37.31,37.31,0,0,0,.5-6c0-.77,0-1.41,0-1.94s-.07-1-.12-1.35-.08-.66-.12-.88-.06-.42-.09-.58c.38.19.81.42,1.27.7a4.53,4.53,0,0,1,1.3,1.2,6.72,6.72,0,0,1,1,2.08,11.23,11.23,0,0,1,.41,3.36,27.59,27.59,0,0,1-.79,6.6,30.8,30.8,0,0,1-2.21,6.17,32.2,32.2,0,0,1-3.33,5.47,29.14,29.14,0,0,1-4.13,4.47,22.65,22.65,0,0,1-6.15,3.93,16,16,0,0,1-6.28,1.4,8.27,8.27,0,0,1-6.75-2.81q-2.32-2.8-2.33-8.28a32,32,0,0,1,.65-6.19,41.26,41.26,0,0,1,1.83-6.44,40.82,40.82,0,0,1,2.8-6,30,30,0,0,1,3.58-5,17,17,0,0,1,4.18-3.48,9,9,0,0,1,4.58-1.3,8.23,8.23,0,0,1,1.44.12A6.62,6.62,0,0,1,86.27,65.18Z"/><path class="cls-2" d="M133.33,98.48a9.44,9.44,0,0,1-1,4.34,12.13,12.13,0,0,1-2.86,3.65,16.73,16.73,0,0,1-4.27,2.71,18.66,18.66,0,0,1-5.33,1.49,45.88,45.88,0,0,0,1.76,4.44c.68,1.52,1.43,3,2.23,4.39a40.75,40.75,0,0,0,2.49,3.89,20.44,20.44,0,0,0,2.55,2.93,3.89,3.89,0,0,1-.7,1,6.16,6.16,0,0,1-1,.89,7.19,7.19,0,0,1-1.25.67,3.16,3.16,0,0,1-1.23.26,2.78,2.78,0,0,1-2-1,11.89,11.89,0,0,1-1.95-3.2,51.65,51.65,0,0,1-2.06-5.66q-1.08-3.48-2.38-8.38h-1a2.9,2.9,0,0,1-.82-.09,2.86,2.86,0,0,1-.72-.67c-.86,1.85-1.63,3.6-2.3,5.23s-1.27,3.21-1.8,4.73-1,3-1.39,4.41-.75,2.87-1,4.35a6.73,6.73,0,0,1-2.83-1.4,10.38,10.38,0,0,1-2.25-2.83c.12-.29.26-.57.4-.84s.33-.65.56-1.15l.84-1.9,1.34-3.07q.84-1.92,2-4.7l2.85-6.77q.77-1.77,1.32-3.12c.37-.9.7-1.75,1-2.57s.55-1.63.79-2.45.49-1.75.74-2.8a36.08,36.08,0,0,0-4.1,1.7,15.56,15.56,0,0,0-3.15,2,4.13,4.13,0,0,1-.88-.86,8.73,8.73,0,0,1-.84-1.27,14.15,14.15,0,0,1-.68-1.42,4.51,4.51,0,0,1-.33-1.3,18.11,18.11,0,0,1,3.53-1.77,36.66,36.66,0,0,1,4.44-1.42,41.55,41.55,0,0,1,4.8-.93,32.71,32.71,0,0,1,4.56-.34q5.76,0,8.92,2.38A7.66,7.66,0,0,1,133.33,98.48Zm-11.71-4a16,16,0,0,0-1.06,1.73q-.72,1.29-1.65,3.09c-.63,1.2-1.28,2.51-2,3.91s-1.35,2.8-2,4.18a30.35,30.35,0,0,0,6.62-.67,19.32,19.32,0,0,0,5.23-1.9,10.36,10.36,0,0,0,3.44-2.88,6.06,6.06,0,0,0,1.22-3.67,4.29,4.29,0,0,0-1.73-3.67,9,9,0,0,0-5.33-1.27c-.54,0-1.08,0-1.63.07s-1.12.1-1.73.17Z"/><circle class="cls-3" cx="85.04" cy="85.04" r="71.54"/></svg>