<?xml version="1.0" encoding="UTF-8" standalone="no"?>
<svg xmlns="http://www.w3.org/2000/svg" viewBox="0 0 512 512"><defs><style>.cls-1{fill:#131d12;}.cls-1,.cls-2,.cls-3,.cls-4{stroke:#000;stroke-miterlimit:10;}.cls-1,.cls-2{stroke-width:0.25px;}.cls-2{fill:#fff;}.cls-3{fill:#5b5b5b;}.cls-3,.cls-4{stroke-width:2px;}.cls-4,.cls-5{fill:#f2f2f2;}</style></defs><title>Telegram icon</title><g ><path class="cls-1" d="M275.93,386.94l.07.06.05-.06ZM453,71.21v.07l.11,0Z"/><polygon class="cls-2" points="453.11 71.24 453 71.28 453 71.21 453.11 71.24"/><polygon class="cls-1" points="453.11 71.24 453 71.28 453 71.21 453.11 71.24"/><polygon class="cls-3" points="453.11 71.24 453 71.28 453 71.21 453.11 71.24"/><path class="cls-4" d="M488.65,34.56l-476.88,186c-12.81,5-13.63,22.91-1.33,29l124.4,62a15.9,15.9,0,0,0,15.09-.49l110.72-64.36-67,59.38A15.9,15.9,0,0,0,188.27,318V462.67c0,15.26,19.48,21.69,28.62,9.56L257,418.9l13.65-18.15,133,75.72a15.89,15.89,0,0,0,23.44-10.68L510,52.5C512.49,40.08,500.13,29.94,488.65,34.56ZM275.86,396.77l-.07-.06h.12Z"/></g><g  data-name="Layer 2"><rect class="cls-5" x="270.17" y="392.31" width="10.78" height="6.57"/></g></svg>